HIERARCHY
ROOT pelvis
{
	OFFSET 0.000000 0.000000 0.000000
	CHANNELS 6 Xposition Yposition Zposition Xrotation Yrotation Zrotation
	JOINT l_hip
	{
		OFFSET 0.195211 -0.245059 -0.022011
		CHANNELS 3 Xrotation Yrotation Zrotation
		JOINT l_knee
		{
			OFFSET 0.083896 -0.996307 -0.018298
			CHANNELS 3 Xrotation Yrotation Zrotation
			JOINT l_ankle
			{
				OFFSET -0.031606 -1.048662 -0.119000
				CHANNELS 3 Xrotation Yrotation Zrotation
				JOINT l_foot
				{
					OFFSET 0.063841 -0.149483 0.312863
					CHANNELS 3 Xrotation Yrotation Zrotation
					End Site
					{
						OFFSET 0.000000 0.000000 0.000000
					}
				}
			}
		}
	}
	JOINT r_hip
	{
		OFFSET -0.188785 -0.243354 -0.013119
		CHANNELS 3 Xrotation Yrotation Zrotation
		JOINT r_knee
		{
			OFFSET -0.098896 -1.013926 -0.025127
			CHANNELS 3 Xrotation Yrotation Zrotation
			JOINT r_ankle
			{
				OFFSET 0.038376 -1.049454 -0.114596
				CHANNELS 3 Xrotation Yrotation Zrotation
				JOINT r_foot
				{
					OFFSET -0.060300 -0.126955 0.322518
					CHANNELS 3 Xrotation Yrotation Zrotation
					End Site
					{
						OFFSET 0.000000 0.000000 0.000000
					}
				}
			}
		}
	}
	JOINT spine1
	{
		OFFSET -0.006861 0.282462 -0.060688
		CHANNELS 3 Xrotation Yrotation Zrotation
		JOINT spine2
		{
			OFFSET 0.009796 0.349212 -0.004686
			CHANNELS 3 Xrotation Yrotation Zrotation
			JOINT spine3
			{
				OFFSET 0.005545 0.134239 0.076232
				CHANNELS 3 Xrotation Yrotation Zrotation
				JOINT neck
				{
					OFFSET -0.005369 0.569656 -0.136135
					CHANNELS 3 Xrotation Yrotation Zrotation
					JOINT head
					{
						OFFSET 0.009621 0.170484 0.137338
						CHANNELS 3 Xrotation Yrotation Zrotation
						End Site
						{
							OFFSET 0.000000 0.000000 0.000000
						}
					}
				}
				JOINT l_collar
				{
					OFFSET 0.205981 0.322192 -0.100872
					CHANNELS 3 Xrotation Yrotation Zrotation
					JOINT l_shoulder
					{
						OFFSET 0.233388 0.086823 -0.019950
						CHANNELS 3 Xrotation Yrotation Zrotation
						JOINT l_elbow
						{
							OFFSET 0.687295 -0.032736 -0.075278
							CHANNELS 3 Xrotation Yrotation Zrotation
							JOINT l_wrist
							{
								OFFSET 0.651109 0.024639 0.000120
								CHANNELS 3 Xrotation Yrotation Zrotation
								JOINT l_hand
								{
									OFFSET 0.217934 -0.026487 -0.036124
									CHANNELS 3 Xrotation Yrotation Zrotation
									End Site
									{
										OFFSET 0.000000 0.000000 0.000000
									}
								}
							}
						}
					}
				}
				JOINT r_collar
				{
					OFFSET -0.210726 0.316244 -0.114374
					CHANNELS 3 Xrotation Yrotation Zrotation
					JOINT r_shoulder
					{
						OFFSET -0.244017 0.089684 -0.026814
						CHANNELS 3 Xrotation Yrotation Zrotation
						JOINT r_elbow
						{
							OFFSET -0.672913 -0.035979 -0.055153
							CHANNELS 3 Xrotation Yrotation Zrotation
							JOINT r_wrist
							{
								OFFSET -0.670689 0.023586 -0.009661
								CHANNELS 3 Xrotation Yrotation Zrotation
								JOINT r_hand
								{
									OFFSET -0.219937 -0.019827 -0.028502
									CHANNELS 3 Xrotation Yrotation Zrotation
									End Site
									{
										OFFSET 0.000000 0.000000 0.000000
									}
								}
							}
						}
					}
				}
			}
		}
	}
}
MOTION
Frames: 14
Frame Time: 0.016667
0.000000 0.000000 0.000000 0.000000 0.000000 0.000000 3.105184 4.608140 3.676372 6.064744 -5.619753 -4.122473 0.000000 0.000000 0.000000 0.000000 0.000000 0.000000 -0.285875 -6.076766 -7.672333 9.266761 -1.845828 2.904823 0.000000 0.000000 0.000000 0.000000 0.000000 0.000000 12.894175 -1.297171 4.305451 1.580325 -1.912978 -2.718014 4.489470 -2.137335 -1.627587 14.221474 -7.213457 -14.751429 3.704510 -2.839001 -9.163594 3.865660 5.745968 -18.277035 -4.453159 -16.280922 -55.940241 -4.198897 -17.542692 -3.131210 0.000000 0.000000 0.000000 0.000000 0.000000 0.000000 0.252305 -0.606492 17.848253 2.945708 17.818090 53.762764 -15.306542 16.002459 9.441172 0.000000 0.000000 0.000000 0.000000 0.000000 0.000000 
0.000000 0.000000 0.000000 0.000000 0.000000 0.000000 2.871957 4.779432 4.011797 5.678467 -5.506334 -4.209730 0.000000 0.000000 0.000000 0.000000 0.000000 0.000000 0.205276 -6.410402 -7.355028 7.669959 -1.661505 2.831063 0.000000 0.000000 0.000000 0.000000 0.000000 0.000000 12.103908 -1.089857 3.836600 1.366417 -2.230780 -2.573142 4.371476 -2.070453 -1.231475 13.305470 -3.413952 -14.661137 2.652837 0.287035 -8.722014 3.647977 5.105752 -18.094578 -4.152108 -15.787824 -55.681683 -3.450002 -15.274880 -3.608253 0.000000 0.000000 0.000000 0.000000 0.000000 0.000000 0.680718 -0.915290 17.898934 3.013289 17.436370 53.761199 -14.412354 15.674138 9.328153 0.000000 0.000000 0.000000 0.000000 0.000000 0.000000 
0.000000 0.000000 0.000000 0.000000 0.000000 0.000000 2.660096 4.830697 3.930145 5.679286 -5.307032 -4.105510 0.000000 0.000000 0.000000 0.000000 0.000000 0.000000 -0.353578 -6.262797 -7.432527 7.885136 -1.461826 2.867863 0.000000 0.000000 0.000000 0.000000 0.000000 0.000000 12.295352 -1.111669 4.245146 1.069631 -2.090187 -2.745955 4.244787 -1.928818 -1.198605 12.500769 -1.224140 -14.712752 2.469724 2.497234 -9.042026 3.420797 4.825502 -18.436885 -4.167488 -15.521525 -55.764149 -3.410847 -14.198142 -3.837551 0.000000 0.000000 0.000000 0.000000 0.000000 0.000000 0.897397 -0.825326 17.946902 2.960232 17.347612 53.287219 -14.280499 15.308106 9.622716 0.000000 0.000000 0.000000 0.000000 0.000000 0.000000 
0.000000 0.000000 0.000000 0.000000 0.000000 0.000000 2.596199 5.084975 4.101297 5.317307 -4.938737 -4.144574 0.000000 0.000000 0.000000 0.000000 0.000000 0.000000 -0.451607 -6.108066 -6.869838 7.123930 -1.062921 2.656261 0.000000 0.000000 0.000000 0.000000 0.000000 0.000000 12.325176 -0.863964 3.858095 0.620914 -1.723397 -2.711964 4.014624 -1.688481 -0.836368 11.894994 1.743890 -14.527728 2.120807 5.376517 -9.004391 3.136167 4.532067 -18.407265 -4.010752 -15.234068 -55.645242 -2.966320 -12.809701 -4.109775 0.000000 0.000000 0.000000 0.000000 0.000000 0.000000 1.224777 -0.795231 17.867549 2.644135 17.312621 53.341554 -14.440898 13.916820 9.736477 0.000000 0.000000 0.000000 0.000000 0.000000 0.000000 
0.000000 0.000000 0.000000 0.000000 0.000000 0.000000 2.136956 4.909649 4.297227 5.366336 -5.007896 -4.131894 0.000000 0.000000 0.000000 0.000000 0.000000 0.000000 -0.198496 -6.398624 -6.965879 6.434862 -1.178402 2.835814 0.000000 0.000000 0.000000 0.000000 0.000000 0.000000 11.751408 -0.712900 3.897607 0.571948 -1.955958 -2.480196 4.032803 -1.766602 -0.479749 11.745503 3.570652 -14.260066 0.767797 7.438331 -8.588535 3.056252 4.284922 -18.302579 -4.275433 -15.324348 -56.151670 -2.370164 -11.745976 -4.144875 0.000000 0.000000 0.000000 0.000000 0.000000 0.000000 1.501293 -1.283420 17.580702 2.425563 17.114073 53.285998 -13.603576 13.302183 9.439495 0.000000 0.000000 0.000000 0.000000 0.000000 0.000000 
0.000000 0.000000 0.000000 0.000000 0.000000 0.000000 2.034450 4.900318 4.223758 5.393338 -4.922100 -4.046867 0.000000 0.000000 0.000000 0.000000 0.000000 0.000000 -0.581491 -6.280143 -7.091159 6.624213 -1.213775 2.861344 0.000000 0.000000 0.000000 0.000000 0.000000 0.000000 11.972055 -0.750647 4.380925 0.536271 -1.924710 -2.635765 3.882150 -1.727508 -0.432982 11.142305 4.700053 -13.977859 -0.666029 9.218040 -8.324777 2.912626 4.067382 -18.493479 -4.363964 -15.276448 -56.487607 -2.464642 -11.531909 -4.069909 0.000000 0.000000 0.000000 0.000000 0.000000 0.000000 1.564828 -1.268933 17.196757 2.295430 17.107074 53.316648 -13.639295 13.089484 9.489120 0.000000 0.000000 0.000000 0.000000 0.000000 0.000000 
0.000000 0.000000 0.000000 0.000000 0.000000 0.000000 1.977900 4.935248 4.250521 5.453007 -4.833068 -4.072517 0.000000 0.000000 0.000000 0.000000 0.000000 0.000000 -0.819960 -6.113697 -7.088515 6.930441 -1.206352 2.893247 0.000000 0.000000 0.000000 0.000000 0.000000 0.000000 12.226565 -0.736212 4.486277 0.481161 -1.793949 -2.664707 3.737180 -1.642269 -0.340788 11.145817 5.420955 -13.588493 -1.371887 10.411965 -7.978254 2.842987 3.936371 -18.569812 -4.439493 -15.310621 -56.561453 -2.492167 -11.492742 -4.060463 0.000000 0.000000 0.000000 0.000000 0.000000 0.000000 1.681332 -1.180050 16.960845 2.131475 17.246202 53.412237 -13.678422 12.814044 9.444908 0.000000 0.000000 0.000000 0.000000 0.000000 0.000000 
0.000000 0.000000 0.000000 0.000000 0.000000 0.000000 2.062479 4.922139 4.349051 5.474925 -4.805892 -4.130823 0.000000 0.000000 0.000000 0.000000 0.000000 0.000000 -0.728486 -6.061570 -7.011714 6.914667 -1.290552 2.911094 0.000000 0.000000 0.000000 0.000000 0.000000 0.000000 12.408189 -0.682886 4.404577 0.656714 -1.733826 -2.619809 3.560422 -1.551901 -0.129686 11.414366 6.289065 -12.417771 -2.774785 12.122348 -6.803513 2.803094 3.689704 -18.730062 -4.509662 -15.527053 -56.453386 -2.605132 -12.012664 -4.185405 0.000000 0.000000 0.000000 0.000000 0.000000 0.000000 1.876218 -1.154170 16.606959 1.990223 17.377779 53.551487 -13.848490 12.558229 9.360586 0.000000 0.000000 0.000000 0.000000 0.000000 0.000000 
0.000000 0.000000 0.000000 0.000000 0.000000 0.000000 2.067693 4.921246 4.351968 5.475449 -4.804646 -4.131172 0.000000 0.000000 0.000000 0.000000 0.000000 0.000000 -0.721845 -6.062968 -7.008123 6.912880 -1.292080 2.910103 0.000000 0.000000 0.000000 0.000000 0.000000 0.000000 12.412340 -0.698133 4.417410 0.659374 -1.747490 -2.602723 3.558461 -1.564252 -0.113751 11.429886 6.275993 -12.385769 -2.773383 12.117863 -6.776942 2.790847 3.687361 -18.729960 -4.520727 -15.539267 -56.446577 -2.604582 -12.045745 -4.183642 0.000000 0.000000 0.000000 0.000000 0.000000 0.000000 1.883459 -1.157761 16.607514 1.994621 17.376840 53.551001 -13.848878 12.553941 9.357464 0.000000 0.000000 0.000000 0.000000 0.000000 0.000000 
0.000000 0.000000 0.000000 0.000000 0.000000 0.000000 2.392194 4.692231 4.698337 5.272148 -5.048583 -4.288090 0.000000 0.000000 0.000000 0.000000 0.000000 0.000000 0.425618 -6.540020 -6.515025 5.519524 -1.343176 2.842450 0.000000 0.000000 0.000000 0.000000 0.000000 0.000000 11.585770 -0.531716 3.521872 1.120810 -2.003656 -2.068119 3.936278 -1.717786 0.195732 13.148046 5.184311 -10.542492 -2.143999 10.933637 -5.186518 2.949330 4.024117 -18.447650 -4.607032 -16.255174 -55.978663 -2.250833 -14.038316 -4.407171 0.000000 0.000000 0.000000 0.000000 0.000000 0.000000 1.797915 -1.788497 16.686831 2.142269 17.487756 53.584729 -13.563900 12.617026 9.060371 0.000000 0.000000 0.000000 0.000000 0.000000 0.000000 
0.000000 0.000000 0.000000 0.000000 0.000000 0.000000 2.495603 4.538165 4.641462 5.461654 -5.232380 -4.279596 0.000000 0.000000 0.000000 0.000000 0.000000 0.000000 0.483915 -6.561081 -6.799322 5.885388 -1.524359 2.972837 0.000000 0.000000 0.000000 0.000000 0.000000 0.000000 11.458546 -0.565445 3.720499 1.376021 -2.119012 -1.915011 4.145486 -1.826484 0.081531 14.526670 3.564250 -9.926989 -0.688996 9.479409 -5.038084 3.092880 4.223948 -18.514350 -4.924349 -16.895163 -56.170083 -2.234970 -15.019460 -4.227101 0.000000 0.000000 0.000000 0.000000 0.000000 0.000000 1.773574 -1.900741 16.768087 2.224009 17.593216 53.387978 -13.596719 12.973813 9.084703 0.000000 0.000000 0.000000 0.000000 0.000000 0.000000 
0.000000 0.000000 0.000000 0.000000 0.000000 0.000000 2.971896 4.518769 4.702996 5.434210 -5.392786 -4.387010 0.000000 0.000000 0.000000 0.000000 0.000000 0.000000 1.149414 -6.657395 -6.755364 5.906589 -1.512140 3.046840 0.000000 0.000000 0.000000 0.000000 0.000000 0.000000 11.160539 -0.525690 3.336406 1.705292 -2.123740 -1.596423 4.353084 -1.886815 0.057498 16.710407 1.820599 -8.917152 1.869393 7.607789 -4.620323 3.288257 4.467048 -18.298104 -5.329767 -17.465695 -56.016108 -1.978079 -15.573101 -4.129238 0.000000 0.000000 0.000000 0.000000 0.000000 0.000000 1.790364 -1.983771 16.856395 2.215622 17.801154 53.458359 -13.352299 12.945634 8.827092 0.000000 0.000000 0.000000 0.000000 0.000000 0.000000 
0.000000 0.000000 0.000000 0.000000 0.000000 0.000000 3.009848 4.405191 4.581747 5.794888 -5.569711 -4.281843 0.000000 0.000000 0.000000 0.000000 0.000000 0.000000 0.860248 -6.540471 -6.970886 6.673064 -1.688701 3.137755 0.000000 0.000000 0.000000 0.000000 0.000000 0.000000 11.447103 -0.703188 3.702627 1.676131 -2.110942 -1.571688 4.526796 -1.951940 -0.136449 18.324910 0.112378 -8.193254 3.910880 6.073642 -4.537009 3.382191 4.718242 -18.317254 -5.919138 -18.063278 -56.337745 -1.889408 -15.979140 -3.944358 0.000000 0.000000 0.000000 0.000000 0.000000 0.000000 1.722438 -2.003117 16.753770 2.212528 18.037731 53.441409 -13.425993 13.238554 8.915469 0.000000 0.000000 0.000000 0.000000 0.000000 0.000000 
0.000000 0.000000 0.000000 0.000000 0.000000 0.000000 3.269101 4.349603 4.556276 6.162417 -5.617388 -4.335354 0.000000 0.000000 0.000000 0.000000 0.000000 0.000000 0.648401 -6.245777 -7.068869 7.842596 -1.708637 3.189213 0.000000 0.000000 0.000000 0.000000 0.000000 0.000000 11.811904 -0.886713 3.683225 1.728188 -1.967137 -1.472745 4.753753 -1.974972 -0.414693 20.626368 -2.013416 -7.231597 7.177144 3.893213 -4.223152 3.620556 4.823058 -18.243237 -6.539728 -18.675901 -56.308490 -2.483885 -16.677889 -3.913293 0.000000 0.000000 0.000000 0.000000 0.000000 0.000000 1.606475 -1.689693 16.824231 1.983789 18.597731 53.602433 -13.815825 13.255526 8.749865 0.000000 0.000000 0.000000 0.000000 0.000000 0.000000 
